<svg xmlns="http://www.w3.org/2000/svg" viewBox="0 0 128 128" width="128" height="128">
<title>10万+爆款选题炼金炉 - 高清图标</title>
<desc>10w+ 爆款选题炼金炉品牌图标，深色底配金炉烈焰，象征把热点原料炼成 10万+ 爆款选题</desc>
<rect width="128" height="128" fill="#1A1A1A" rx="22"/>
<text x="64" y="24" font-size="13" fill="#FFD93D" text-anchor="middle" font-weight="600" font-family="Arial, sans-serif">10w+</text>
<path d="M40 88 Q40 56 64 40 Q88 56 88 88 Q88 104 64 114 Q40 104 40 88 Z" fill="#FF8A1A"/>
<path d="M52 88 Q52 66 64 56 Q76 66 76 88 Q76 98 64 104 Q52 98 52 88 Z" fill="#FFD93D"/>
<path d="M58 84 Q58 70 64 64 Q70 70 70 84 Q70 90 64 92 Q58 90 58 84 Z" fill="#FFFFFF" opacity="0.7"/>
<rect x="22" y="88" width="84" height="22" rx="4" fill="#5C2C0F"/>
<rect x="22" y="88" width="84" height="22" rx="4" fill="#3A1B08" opacity="0.4"/>
<rect x="32" y="82" width="64" height="7" fill="#FFB949"/>
<rect x="32" y="82" width="64" height="2.5" fill="#FFE38A"/>
<rect x="36" y="106" width="56" height="3" fill="#1F0E04"/>
<circle cx="32" cy="46" r="2" fill="#FFD93D" opacity="0.85"/>
<circle cx="92" cy="42" r="1.8" fill="#FFB949" opacity="0.85"/>
<circle cx="40" cy="34" r="1.4" fill="#FFE38A" opacity="0.7"/>
<circle cx="84" cy="32" r="1.2" fill="#FFD93D" opacity="0.7"/>
<circle cx="48" cy="28" r="0.8" fill="#FFFFFF" opacity="0.5"/>
</svg>
